name C:\Users\r0593348\3dpredictsim\Results\MidTarsalJoint\Fal_s1_bCst_PF_Natali2010_ls150_MT_k50_d010_MTP_T5_ig21.mot
datacolumns 128
datarows 4
range 0.58619420 0.62136586
endheader
time	pelvis_tilt	pelvis_list	pelvis_rotation	pelvis_tx	pelvis_ty	pelvis_tz	hip_flexion_l	hip_adduction_l	hip_rotation_l	hip_flexion_r	hip_adduction_r	hip_rotation_r	knee_angle_l	knee_angle_r	ankle_angle_l	ankle_angle_r	subtalar_angle_l	subtalar_angle_r	mtj_angle_l	mtj_angle_r	mtp_angle_l	mtp_angle_r	lumbar_extension	lumbar_bending	lumbar_rotation	arm_flex_l	arm_add_l	arm_rot_l	arm_flex_r	arm_add_r	arm_rot_r	elbow_flex_l	elbow_flex_r	pro_sup_l	pro_sup_r	glut_med1_l/activation	glut_med2_l/activation	glut_med3_l/activation	glut_min1_l/activation	glut_min2_l/activation	glut_min3_l/activation	semimem_l/activation	semiten_l/activation	bifemlh_l/activation	bifemsh_l/activation	sar_l/activation	add_long_l/activation	add_brev_l/activation	add_mag1_l/activation	add_mag2_l/activation	add_mag3_l/activation	tfl_l/activation	pect_l/activation	grac_l/activation	glut_max1_l/activation	glut_max2_l/activation	glut_max3_l/activation	iliacus_l/activation	psoas_l/activation	quad_fem_l/activation	gem_l/activation	peri_l/activation	rect_fem_l/activation	vas_med_l/activation	vas_int_l/activation	vas_lat_l/activation	med_gas_l/activation	lat_gas_l/activation	soleus_l/activation	tib_post_l/activation	flex_dig_l/activation	flex_hal_l/activation	tib_ant_l/activation	per_brev_l/activation	per_long_l/activation	per_tert_l/activation	ext_dig_l/activation	ext_hal_l/activation	ercspn_l/activation	intobl_l/activation	extobl_l/activation	glut_med1_r/activation	glut_med2_r/activation	glut_med3_r/activation	glut_min1_r/activation	glut_min2_r/activation	glut_min3_r/activation	semimem_r/activation	semiten_r/activation	bifemlh_r/activation	bifemsh_r/activation	sar_r/activation	add_long_r/activation	add_brev_r/activation	add_mag1_r/activation	add_mag2_r/activation	add_mag3_r/activation	tfl_r/activation	pect_r/activation	grac_r/activation	glut_max1_r/activation	glut_max2_r/activation	glut_max3_r/activation	iliacus_r/activation	psoas_r/activation	quad_fem_r/activation	gem_r/activation	peri_r/activation	rect_fem_r/activation	vas_med_r/activation	vas_int_r/activation	vas_lat_r/activation	med_gas_r/activation	lat_gas_r/activation	soleus_r/activation	tib_post_r/activation	flex_dig_r/activation	flex_hal_r/activation	tib_ant_r/activation	per_brev_r/activation	per_long_r/activation	per_tert_r/activation	ext_dig_r/activation	ext_hal_r/activation	ercspn_r/activation	intobl_r/activation	extobl_r/activation	
          0.58619420	         -2.92860379	          2.37804751	         -6.21956184	          0.73274275	          0.91722235	          0.00209613	         29.55429165	          3.27836195	         -1.76969314	        -15.94944367	         -1.73920628	          6.51067257	         -9.24957295	         -9.45320296	          5.69532541	         -5.70071142	         -6.62413972	         11.89642263	         -0.10131795	         13.90188576	         -0.78354680	         -1.67477187	         -1.77277206	         -0.34186057	          2.43759879	         -6.72430183	        -13.53455964	          5.10591635	          5.16738623	        -13.45077307	         15.68722244	         18.07265131	         36.93223727	         86.51662706	         86.51662706	          0.05976989	          0.05976989	          0.05000001	          0.05976989	          0.05976989	          0.05976959	          0.24139952	          0.10172508	          0.13769539	          0.06192701	          0.05000001	          0.14589729	          0.23917328	          0.20166529	          0.19913181	          0.12222333	          0.05000001	          0.05000039	          0.16130600	          0.05000102	          0.09961756	          0.14906113	          0.05000001	          0.05000000	          0.14168310	          0.23487662	          0.10020065	          0.05000000	          0.06564821	          0.06389217	          0.05823588	          0.06280267	          0.06562646	          0.06076495	          0.05000000	          0.05000005	          0.05000002	          0.41861782	          0.24421974	          0.17049691	          0.11718047	          0.45289883	          0.21217017	          0.05695445	          0.12433289	          0.10778677	          0.23540391	          0.11389624	          0.07829345	          0.25621496	          0.19975571	          0.12204879	          0.05000009	          0.05000001	          0.05000001	          0.05000014	          0.12090281	          0.05000001	          0.05000001	          0.05000001	          0.05000003	          0.05000002	          0.32841990	          0.05000016	          0.05000005	          0.05000018	          0.05000009	          0.05000003	          0.47910578	          0.65735550	          0.05000000	          0.05000004	          0.05981053	          0.31154590	          0.05000001	          0.05000001	          0.05000001	          0.31144238	          0.41890785	          0.40212237	          0.25577983	          0.21144005	          0.28899319	          0.05000000	          0.05977474	          0.16377538	          0.05000002	          0.05000000	          0.05000001	          0.05000000	          0.05000000	          0.05000000	
          0.59791809	         -2.93017479	          2.47172018	         -6.54451833	          0.75029286	          0.91600923	          0.00189349	         28.95473136	          3.65700095	         -1.51892092	        -15.95000117	         -2.07094571	          6.27886267	         -9.70185459	        -11.18531505	          4.98620402	         -6.04086208	         -6.93928762	         12.77350410	         -0.09579632	         12.96234523	         -0.79406129	         -1.01731594	         -1.56981774	         -0.52533498	          2.51226593	         -7.64141130	        -13.52661772	          5.09033279	          4.95598900	        -13.45789953	         16.09927745	         17.57510798	         38.13790243	         86.51662706	         86.51662706	          0.05000000	          0.05000000	          0.07207272	          0.05000000	          0.05000000	          0.05000000	          0.20194070	          0.08509725	          0.11518790	          0.05180452	          0.05094216	          0.12204918	          0.28633700	          0.30045763	          0.19743981	          0.10976655	          0.05000002	          0.07144896	          0.13494691	          0.05000006	          0.10982049	          0.14814366	          0.05000003	          0.06456654	          0.51823045	          0.19648404	          0.08382201	          0.05976995	          0.07100397	          0.07231531	          0.06119145	          0.06125440	          0.06770654	          0.05688689	          0.05976990	          0.05000089	          0.05976988	          0.43569568	          0.26674211	          0.21285778	          0.10422577	          0.37886869	          0.17748914	          0.05000000	          0.10400962	          0.09016810	          0.19692513	          0.09527893	          0.06549573	          0.21433444	          0.16710393	          0.10209887	          0.05000023	          0.05000005	          0.05000005	          0.05000001	          0.10114024	          0.09066606	          0.05976936	          0.05976999	          0.05976968	          0.05976990	          0.27473688	          0.05976901	          0.05000172	          0.05000044	          0.05000033	          0.05000065	          0.40079194	          0.62941572	          0.05000213	          0.05071085	          0.05976967	          0.29257332	          0.05323830	          0.12756329	          0.12810603	          0.26053448	          0.36041437	          0.37765278	          0.23439919	          0.17687859	          0.24812661	          0.05000000	          0.05000408	          0.18496264	          0.05000002	          0.05000000	          0.05000003	          0.05000003	          0.07144881	          0.06039057	
          0.60964197	         -2.92736355	          2.56538222	         -6.83505040	          0.76818970	          0.91485262	          0.00171566	         28.26077683	          3.94330070	         -1.23178459	        -15.91303904	         -2.40189459	          6.04923023	        -10.38954865	        -12.96972520	          4.36149830	         -6.45254505	         -7.25637057	         13.57044899	         -0.41027871	         11.70185623	         -0.76369067	         -0.03737363	         -1.34372789	         -0.71864124	          2.57201995	         -8.58638157	        -13.52428974	          5.14136015	          4.66023750	        -13.45984292	         16.43250844	         17.12128251	         39.30709522	         86.51662706	         86.51662706	          0.22381574	          0.20490865	          0.20814751	          0.26710992	          0.18112770	          0.16699031	          0.16893177	          0.07819654	          0.09635947	          0.07311195	          0.05000007	          0.10209920	          0.23953277	          0.25134526	          0.16516660	          0.12399953	          0.05000003	          0.05977009	          0.11288875	          0.05000009	          0.13330576	          0.12392846	          0.05000067	          0.05401259	          0.43352124	          0.16436705	          0.16110852	          0.05000004	          0.05939777	          0.06049476	          0.05118919	          0.05124185	          0.05663933	          0.05000000	          0.05000000	          0.05000003	          0.05000004	          0.49143709	          0.31951495	          0.17806443	          0.26020041	          0.46914121	          0.14847708	          0.05000000	          0.14112793	          0.07542935	          0.27529949	          0.07970480	          0.05705746	          0.24817115	          0.13978940	          0.08540995	          0.05000014	          0.05000001	          0.05000001	          0.05000001	          0.08460833	          0.07584592	          0.05000004	          0.05000010	          0.05000010	          0.05000008	          0.30848086	          0.05000019	          0.05000007	          0.05000051	          0.05000029	          0.05000013	          0.36083287	          0.60754688	          0.05000004	          0.05000014	          0.05000011	          0.24474974	          0.09285026	          0.10671204	          0.10716605	          0.21794789	          0.30150156	          0.33762514	          0.20717665	          0.14796633	          0.20756826	          0.05000000	          0.10808495	          0.18926550	          0.05000001	          0.05000000	          0.05000001	          0.05000000	          0.05976989	          0.05051922	
          0.62136586	         -2.92285581	          2.65273629	         -7.08176987	          0.78622363	          0.91385852	          0.00151680	         27.53921419	          4.19747044	         -0.95000280	        -15.80038926	         -2.72293260	          5.83704407	        -11.03596872	        -14.83680986	          3.66164894	         -6.94707417	         -7.56279931	         14.28938228	         -0.42957409	         10.07403003	         -0.67346225	          1.37039817	         -1.11824076	         -0.91623996	          2.62193998	         -9.50845312	        -13.52043302	          5.25090059	          4.31169059	        -13.46381571	         16.70894729	         16.69291734	         40.41411081	         86.51662706	         86.51662706	          0.30850036	          0.31236964	          0.32787292	          0.22344854	          0.17810487	          0.18996541	          0.14131842	          0.06541482	          0.08060870	          0.06116119	          0.05000005	          0.08541021	          0.20037909	          0.21026074	          0.13816873	          0.14676423	          0.05000004	          0.05000019	          0.09443614	          0.19769978	          0.18280422	          0.14576339	          0.05000000	          0.05000000	          0.36265848	          0.13749985	          0.13477399	          0.05000000	          0.07268819	          0.08563730	          0.06277459	          0.05000000	          0.05000000	          0.05000000	          0.05000000	          0.05000001	          0.05000001	          0.56954831	          0.33092903	          0.19219830	          0.47301825	          0.50390032	          0.26511458	          0.07185853	          0.11805936	          0.06309978	          0.24062663	          0.06667637	          0.05000006	          0.24332071	          0.11693965	          0.07144897	          0.05000016	          0.05000001	          0.05000001	          0.05000001	          0.07144913	          0.06344830	          0.05000005	          0.05000005	          0.05000011	          0.05000006	          0.26564942	          0.05000041	          0.05000011	          0.05000035	          0.05000019	          0.05000009	          0.30863411	          0.58006475	          0.05000004	          0.05000022	          0.05000009	          0.20474330	          0.07767359	          0.12974004	          0.14589637	          0.18232244	          0.25221855	          0.28243742	          0.17331186	          0.12377999	          0.17363947	          0.05000000	          0.11676026	          0.19684387	          0.05000003	          0.05000005	          0.05000002	          0.05890249	          0.05000000	          0.05000000	
